# xmcd
#
# Track frame offsets: 
#        150
#        15543
#        30752
#        45818
#        60451
#        74443
#        89312
#        104982
#        122011
#        138994
#        154992
#        171199
#        185112
#        198109
#        212250
#        229724
#        245407
#        261157
#        277131
#        293843
#
# Disc length: 4153 seconds
#
# Revision: 2
# Processed by: cddbd v1.5.2PL0 Copyright (c) Steve Scherf et al.
# Submitted via: ExactAudioCopyFreeDBPlugin 1.0
#
DISCID=1a103714
DTITLE=Diverse - Gute Wahl Sommergefühle CD 2
DYEAR=1900
DGENRE=Schlager
TTITLE0=Olaf Berger - Mitten in mein Herz
TTITLE1=Gaby Baginsky - Frag doch den Sommerwind
TTITLE2=Cordalis - Gib mir Deine Liebe
TTITLE3=Tuesdays - Zusammen geh'n
TTITLE4=Chris Roberts - Heißgeliebt
TTITLE5=Mary Roos - Blaues Meer und warmer Wind
TTITLE6=Janis Nikos - Bambolita
TTITLE7=Sina Lenz - Ich träum dem Sommer hinterher
TTITLE8=Frank Schöbel - Leben so wie ich es mag
TTITLE9=Irene Sheer - Ich bin stark
TTITLE10=Oliver Frank - Wo bist du
TTITLE11=Andrea Jürgens - Du hast mich belogen
TTITLE12=Dirk Busch - Urlaub auf der Autobahn
TTITLE13=Conny Engel - Ooopsala
TTITLE14=Guido Hoffmann - Zwei Fremde
TTITLE15=Fernando Express - Bolero D'amore
TTITLE16=Bernd Oliver - Wir fliegen weit
TTITLE17=Ingrid Peters - Hör nicht auf
TTITLE18=Looping - Du hast mich mit Sternen übersät
TTITLE19=Carin Posch - Das kommt nie wieder
EXTD=
EXTT0=
EXTT1=
EXTT2=
EXTT3=
EXTT4=
EXTT5=
EXTT6=
EXTT7=
EXTT8=
EXTT9=
EXTT10=
EXTT11=
EXTT12=
EXTT13=
EXTT14=
EXTT15=
EXTT16=
EXTT17=
EXTT18=
EXTT19=
PLAYORDER=
